HIERARCHY
ROOT Pelvis
{
	OFFSET 0.000000 0.000000 0.000000
	CHANNELS 6 Xposition Yposition Zposition Xrotation Yrotation Zrotation
	JOINT LeftUpLeg_virtual
	{
		OFFSET 0.000000 0.000000 0.000000
		CHANNELS 3 Xrotation Yrotation Zrotation
		JOINT LeftUpLeg
		{
			OFFSET 18.735201 -5.666702 -4.541200
			CHANNELS 3 Xrotation Yrotation Zrotation
			JOINT LeftLeg
			{
				OFFSET -0.021200 -31.938179 0.493100
				CHANNELS 3 Xrotation Yrotation Zrotation
				JOINT LeftFoot
				{
					OFFSET 0.021200 -31.938179 -4.336299
					CHANNELS 3 Xrotation Yrotation Zrotation
					JOINT LeftToeBase
					{
						OFFSET 0.943001 -26.722000 15.023500
						CHANNELS 3 Xrotation Yrotation Zrotation
						End Site
						{
							OFFSET 0 0 0
						}
					}
				}
			}
		}
	}
	JOINT RightUpLeg_virtual
	{
		OFFSET 0.000000 0.000000 0.000000
		CHANNELS 3 Xrotation Yrotation Zrotation
		JOINT RightUpLeg
		{
			OFFSET -18.735201 -5.666702 -4.541200
			CHANNELS 3 Xrotation Yrotation Zrotation
			JOINT RightLeg
			{
				OFFSET 0.018946 -31.938133 0.493100
				CHANNELS 3 Xrotation Yrotation Zrotation
				JOINT RightFoot
				{
					OFFSET -0.018946 -31.938126 -4.336299
					CHANNELS 3 Xrotation Yrotation Zrotation
					JOINT RightToeBase
					{
						OFFSET -0.943001 -26.722004 15.023500
						CHANNELS 3 Xrotation Yrotation Zrotation
						End Site
						{
							OFFSET 0 0 0
						}
					}
				}
			}
		}
	}
	JOINT Hips_virtual
	{
		OFFSET 0.000000 0.000000 0.000000
		CHANNELS 3 Xrotation Yrotation Zrotation
		JOINT Hips
		{
			OFFSET -0.000000 -0.000000 -0.000000
			CHANNELS 3 Xrotation Yrotation Zrotation
			JOINT Spine
			{
				OFFSET 0.000000 10.199997 -0.299500
				CHANNELS 3 Xrotation Yrotation Zrotation
				JOINT Spine1
				{
					OFFSET 0.000000 11.900002 -1.516600
					CHANNELS 3 Xrotation Yrotation Zrotation
					JOINT Spine2
					{
						OFFSET 0.000000 13.600006 -2.842500
						CHANNELS 3 Xrotation Yrotation Zrotation
						JOINT Neck_virtual
						{
							OFFSET 0.000000 0.000000 0.000000
							CHANNELS 3 Xrotation Yrotation Zrotation
							JOINT Neck
							{
								OFFSET 0.000000 9.624100 -2.890100
								CHANNELS 3 Xrotation Yrotation Zrotation
								JOINT Head
								{
									OFFSET 0.000000 14.068802 -1.351900
									CHANNELS 3 Xrotation Yrotation Zrotation
									End Site
									{
										OFFSET 0 0 0
									}
								}
							}
						}
						JOINT LeftShoulder_virtual
						{
							OFFSET 0.000000 0.000000 0.000000
							CHANNELS 3 Xrotation Yrotation Zrotation
							JOINT LeftShoulder
							{
								OFFSET 15.263000 10.923401 -0.547700
								CHANNELS 3 Xrotation Yrotation Zrotation
								JOINT LeftArm
								{
									OFFSET 25.438599 -2.830597 -13.032500
									CHANNELS 3 Xrotation Yrotation Zrotation
									JOINT LeftForeArm
									{
										OFFSET 29.960503 0.000000 0.000000
										CHANNELS 3 Xrotation Yrotation Zrotation
										JOINT LeftHand
										{
											OFFSET 27.849251 0.000000 0.000000
											CHANNELS 3 Xrotation Yrotation Zrotation
											End Site
											{
												OFFSET 0 0 0
											}
										}
									}
								}
							}
						}
						JOINT RightShoulder_virtual
						{
							OFFSET 0.000000 0.000000 0.000000
							CHANNELS 3 Xrotation Yrotation Zrotation
							JOINT RightShoulder
							{
								OFFSET -15.263000 10.923401 -0.547700
								CHANNELS 3 Xrotation Yrotation Zrotation
								JOINT RightArm
								{
									OFFSET -25.438599 -2.830597 -13.032500
									CHANNELS 3 Xrotation Yrotation Zrotation
									JOINT RightForeArm
									{
										OFFSET -29.960503 0.000000 0.000000
										CHANNELS 3 Xrotation Yrotation Zrotation
										JOINT RightHand
										{
											OFFSET -27.849251 0.000000 0.000000
											CHANNELS 3 Xrotation Yrotation Zrotation
											End Site
											{
												OFFSET 0 0 0
											}
										}
									}
								}
							}
						}
					}
				}
			}
		}
	}
}
MOTION
Frames: 7
Frame Time: 0.03333333
-4.011702 82.949165 1.642748 0.000000 0.000000 0.000000 -0.577103 -42.623027 4.018813 -46.360992 -2.843831 19.278112 42.285056 -6.062594 -5.353421 -9.148775 -3.173482 -17.350216 0.000000 0.000000 0.000000 3.609721 -49.423573 -3.447101 -29.802004 -16.787106 -25.149854 43.405101 6.557442 -1.055040 -12.147242 2.832782 14.606829 0.000000 0.000000 0.000000 0.379172 -27.947599 0.797228 0.240433 -33.752548 0.556766 13.670774 -0.883855 -4.408926 7.727183 0.637632 -3.787921 0.000000 0.000000 0.000000 2.244882 3.803977 -1.751627 -1.027497 3.186187 -0.108851 0.000000 0.000000 0.000000 3.383225 -0.088983 -3.015028 -1.258589 -7.957739 -8.733117 -22.434878 -3.153740 -41.154229 -4.414338 -38.093215 -2.844843 0.000000 0.000000 0.000000 4.136862 0.940272 -2.839140 1.228406 4.725950 -6.916456 -38.002524 -4.514816 42.115001 -45.406739 71.976547 41.481023 0.000000 0.000000 0.000000 
-3.780367 82.665916 1.960997 0.000000 0.000000 0.000000 0.415122 -42.594504 4.776441 -45.247701 -2.913701 19.611433 42.196912 -6.476182 -5.929058 -8.888141 -3.319717 -18.683356 0.000000 0.000000 0.000000 4.346526 -49.627953 -2.892992 -29.153949 -17.054976 -24.851293 43.814970 7.250553 -1.306504 -11.865597 3.673013 14.649817 0.000000 0.000000 0.000000 -1.882288 -27.742302 -0.569264 2.787057 -32.340611 2.847206 13.582384 -1.289181 -5.365134 7.968110 0.653330 -4.148101 0.000000 0.000000 0.000000 2.771463 3.440769 -2.584128 -0.829036 3.419758 -0.141085 0.000000 0.000000 0.000000 3.437778 -0.318649 -3.415753 -0.800719 -7.154524 -7.703969 -22.984784 -2.219519 -41.630174 -3.502450 -37.185558 -2.640073 0.000000 0.000000 0.000000 3.810468 0.868793 -3.043877 1.397358 3.236216 -6.976029 -36.210965 -7.310252 40.109668 -56.768100 72.920513 53.666391 0.000000 0.000000 0.000000 
-3.136621 82.444160 2.425413 0.000000 0.000000 0.000000 0.597354 -43.431967 5.421460 -45.171354 -3.398373 20.008932 42.670507 -6.398780 -6.406218 -8.387722 -2.992478 -19.496970 0.000000 0.000000 0.000000 5.415983 -49.452892 -2.197703 -28.198400 -17.230204 -24.532025 45.109503 7.809910 -1.983233 -11.048401 4.686976 14.077384 0.000000 0.000000 0.000000 0.775754 -26.964229 1.811586 -1.203661 -31.682881 2.203319 14.223463 -1.779788 -5.357483 7.656051 0.525600 -3.876240 0.000000 0.000000 0.000000 3.300042 3.372118 -2.565044 -1.115348 3.700840 -0.147869 0.000000 0.000000 0.000000 3.796789 0.000874 -3.505325 -1.417621 -7.319747 -7.841845 -21.613831 -0.307082 -42.818582 -2.903691 -32.958309 -3.157023 0.000000 0.000000 0.000000 3.935745 0.993307 -3.081694 1.545673 2.410986 -7.459508 -33.002026 -6.005677 42.130451 -68.559793 73.852465 65.665596 0.000000 0.000000 0.000000 
-3.725566 82.689537 1.198570 0.000000 0.000000 0.000000 -0.026960 -43.172284 4.704622 -45.540047 -3.221513 19.549477 42.807118 -6.136311 -6.383963 -8.204002 -2.740947 -19.389560 0.000000 0.000000 0.000000 6.833350 -49.509272 -1.263814 -27.037309 -17.565163 -24.148428 44.758937 8.193397 -1.874438 -11.247589 4.991755 14.412070 0.000000 0.000000 0.000000 -1.236524 -25.362410 0.513456 -0.325614 -30.837720 -0.110875 13.271323 -1.437089 -4.956251 8.416000 0.897669 -4.366093 0.000000 0.000000 0.000000 3.107172 3.360649 -2.746073 -1.118477 3.855661 -0.103323 0.000000 0.000000 0.000000 3.912316 -0.056673 -3.878145 -2.281596 -6.838773 -6.704658 -25.034998 -0.385702 -42.049978 -4.129695 -34.034460 -3.559685 0.000000 0.000000 0.000000 4.100811 1.265779 -3.044501 0.733583 1.628096 -6.348614 -33.611354 -7.816438 40.824853 -78.769218 73.703970 76.486453 0.000000 0.000000 0.000000 
-3.243434 83.356415 1.028215 0.000000 0.000000 0.000000 0.357869 -43.783821 5.445026 -45.124731 -3.665231 19.965475 42.582401 -5.931897 -6.620406 -8.136958 -2.440654 -19.673197 0.000000 0.000000 0.000000 6.999747 -50.671302 -0.614454 -27.440756 -17.963457 -23.786562 45.352654 8.595811 -2.097960 -10.951112 5.516366 14.363669 0.000000 0.000000 0.000000 -0.194670 -23.735172 0.616965 -3.834557 -30.463108 -0.355092 14.869756 -1.676873 -5.222515 8.800964 0.468442 -4.083193 0.000000 0.000000 0.000000 4.182319 2.873381 -2.956582 -1.128186 3.938575 0.091625 0.000000 0.000000 0.000000 4.359733 -0.641385 -4.229860 -2.671160 -6.698194 -5.854030 -23.986038 -1.287823 -41.245661 -3.645488 -33.364245 -3.800592 0.000000 0.000000 0.000000 4.751395 1.037371 -2.613960 1.639072 1.499358 -5.701995 -29.049245 -9.716414 39.958738 -80.591294 72.814263 79.847678 0.000000 0.000000 0.000000 
-3.235254 82.963181 1.039366 0.000000 0.000000 0.000000 1.970475 -44.506742 6.798587 -44.004621 -3.915110 20.767317 41.733709 -5.963030 -6.755146 -8.638920 -2.382940 -19.967180 0.000000 0.000000 0.000000 7.054584 -49.540291 -0.234124 -27.393818 -17.706372 -23.206524 45.156498 8.552543 -1.885968 -10.764522 5.457867 14.550690 0.000000 0.000000 0.000000 -2.547026 -30.435589 0.872383 0.622242 -28.868631 1.274799 12.525048 -0.942894 -5.155857 8.599323 1.115882 -4.210231 0.000000 0.000000 0.000000 3.635790 3.469895 -2.846803 -0.738579 4.091368 0.333706 0.000000 0.000000 0.000000 4.149201 -0.228606 -4.744917 -2.558887 -6.891538 -5.333968 -24.826776 -0.849768 -40.111549 -3.014446 -33.602850 -3.471012 0.000000 0.000000 0.000000 4.511692 1.535899 -2.735617 1.063743 3.327174 -6.871487 -34.370758 -7.254617 38.626158 -72.762811 71.729342 72.769382 0.000000 0.000000 0.000000 
-3.969114 83.301491 1.192383 0.000000 0.000000 0.000000 1.513843 -45.205665 6.563683 -44.628685 -4.132960 20.655180 40.912932 -5.616795 -6.966258 -9.360383 -1.806091 -20.100946 0.000000 0.000000 0.000000 6.317468 -49.175945 -1.070216 -27.967086 -17.241571 -23.727258 45.729305 9.015079 -1.775361 -10.596400 5.813073 15.057321 0.000000 0.000000 0.000000 -2.238751 -29.919685 1.423931 -1.005447 -29.893450 1.630036 11.647283 0.594720 -4.631483 8.660555 1.093760 -3.920155 0.000000 0.000000 0.000000 3.761538 3.707118 -2.652093 -0.543970 4.139657 0.539832 0.000000 0.000000 0.000000 4.208040 0.050586 -4.805167 -2.476295 -7.749751 -4.025169 -24.045396 0.253899 -38.413561 -2.619657 -32.557138 -3.579751 0.000000 0.000000 0.000000 4.535272 2.042904 -2.692117 1.108498 4.057680 -7.287133 -37.325276 -9.503254 36.511487 -63.725016 69.060398 63.919349 0.000000 0.000000 0.000000 
